<svg width="57" height="57" viewBox="0 0 57 57" fill="none" xmlns="http://www.w3.org/2000/svg">
<circle cx="28.0084" cy="28.0084" r="27.9394" transform="rotate(0.1415 28.0084 28.0084)" fill="#F05C00"/>
<path d="M34.2109 19.9383C34.1046 19.3964 33.579 19.0433 33.0371 19.1496L24.2056 20.8832C23.6637 20.9896 23.3106 21.5152 23.4169 22.0571C23.5233 22.5991 24.0489 22.9522 24.5908 22.8458L32.441 21.3048L33.982 29.155C34.0884 29.6969 34.6139 30.05 35.1559 29.9437C35.6978 29.8373 36.0509 29.3117 35.9445 28.7698L34.2109 19.9383ZM23.6664 34.4571L24.5181 34.9811C24.8389 34.4598 27.2119 30.9044 29.5295 27.4432C30.6829 25.7206 31.8155 24.032 32.6597 22.7739C33.0818 22.1449 33.4319 21.6235 33.6764 21.2594C33.7986 21.0774 33.8945 20.9347 33.9597 20.8375C33.9924 20.7889 34.0174 20.7516 34.0342 20.7266C34.0427 20.714 34.049 20.7045 34.0533 20.6982C34.0554 20.695 34.0571 20.6926 34.0581 20.691C34.0587 20.6902 34.0591 20.6896 34.0593 20.6892C34.0595 20.689 34.0596 20.6888 34.0596 20.6887C34.0597 20.6886 34.0597 20.6886 33.2297 20.1309C32.3996 19.5733 32.3996 19.5733 32.3995 19.5734C32.3994 19.5735 32.3993 19.5737 32.3992 19.5739C32.3989 19.5743 32.3985 19.5749 32.398 19.5757C32.3969 19.5773 32.3953 19.5797 32.3931 19.5829C32.3889 19.5893 32.3825 19.5988 32.374 19.6113C32.3572 19.6364 32.3322 19.6737 32.2995 19.7223C32.2342 19.8196 32.1383 19.9624 32.016 20.1445C31.7714 20.5087 31.4213 21.0302 30.999 21.6595C30.1545 22.9179 29.0216 24.6071 27.8677 26.3304C25.5707 29.7608 23.1621 33.3685 22.8147 33.9331L23.6664 34.4571Z" fill="#CAC8A0"/>
</svg>
