<svg width="35" height="39" viewBox="0 0 35 39" fill="none" xmlns="http://www.w3.org/2000/svg">
<path d="M18.7213 13.2586C19.0074 13.2586 19.2394 13.0042 19.2394 12.6905C19.2394 12.3767 19.0074 12.1223 18.7213 12.1223C18.4351 12.1223 18.2031 12.3767 18.2031 12.6905C18.2031 13.0042 18.4351 13.2586 18.7213 13.2586Z" fill="#D9D7BA"/>
<path d="M24.317 13.2586C24.6031 13.2586 24.8351 13.0042 24.8351 12.6905C24.8351 12.3767 24.6031 12.1223 24.317 12.1223C24.0308 12.1223 23.7988 12.3767 23.7988 12.6905C23.7988 13.0042 24.0308 13.2586 24.317 13.2586Z" fill="#D9D7BA"/>
<path d="M22.6243 15.759H20.4137C20.2777 15.7615 20.1481 15.8224 20.0527 15.9287C19.9574 16.035 19.9039 16.1781 19.9039 16.3272C19.9039 16.4763 19.9574 16.6194 20.0527 16.7257C20.1481 16.832 20.2777 16.8929 20.4137 16.8953H22.6243C22.7603 16.8929 22.8899 16.832 22.9853 16.7257C23.0806 16.6194 23.1341 16.4763 23.1341 16.3272C23.1341 16.1781 23.0806 16.035 22.9853 15.9287C22.8899 15.8224 22.7603 15.7615 22.6243 15.759Z" fill="#D9D7BA"/>
<path d="M34.857 34.7766L30.8042 21.4421C30.6235 20.8459 30.2762 20.3273 29.8115 19.9599C29.3468 19.5926 28.7883 19.3952 28.2155 19.3957H24.1072C24.9292 19.0456 25.6849 18.5315 26.3361 17.8794C26.9802 17.2356 27.5118 16.4682 27.9047 15.6151C27.9803 15.6599 28.0649 15.6834 28.1508 15.6833H29.8088C30.3993 15.6833 30.8795 15.1564 30.8795 14.5089V12.0844C30.8795 11.643 30.6561 11.258 30.3269 11.0574V9.66002C30.3269 4.63673 26.79 0.441374 22.2462 0.0331958C22.1902 0.0111918 22.1312 -3.8548e-05 22.0717 9.94091e-08H13.068C12.8548 9.94091e-08 12.6585 0.148738 12.5833 0.36727C12.503 0.60032 12.5742 0.871255 12.7555 1.0215L14.7602 2.68348L13.1275 3.0416C13.0101 3.06734 12.9044 3.13692 12.8284 3.2385C12.7525 3.34008 12.711 3.46739 12.711 3.59875V11.0574C12.3819 11.258 12.1583 11.6429 12.1583 12.0844V14.5089C12.1583 15.1565 12.6387 15.6833 13.2291 15.6833H14.3689V17.5395C14.3689 17.6902 14.4235 17.8347 14.5207 17.9413C14.6179 18.0479 14.7496 18.1077 14.8871 18.1078H16.9406C17.5356 18.6528 18.2076 19.0879 18.9302 19.3957H4.68606C4.5501 19.3982 4.42047 19.4591 4.32511 19.5654C4.22975 19.6717 4.1763 19.8149 4.1763 19.964C4.1763 20.1131 4.22975 20.2563 4.32511 20.3626C4.42047 20.4689 4.5501 20.5298 4.68606 20.5323H16.5797V33.9426H1.03621V20.5322H2.24512C2.38108 20.5297 2.51072 20.4688 2.60607 20.3625C2.70143 20.2562 2.75488 20.113 2.75488 19.9639C2.75488 19.8148 2.70143 19.6716 2.60607 19.5653C2.51072 19.459 2.38108 19.3981 2.24512 19.3957H0.518137C0.380724 19.3957 0.248945 19.4556 0.151779 19.5621C0.0546135 19.6687 1.82815e-05 19.8132 0 19.9639V34.5107C1.82815e-05 34.6614 0.0546135 34.806 0.151779 34.9125C0.248945 35.0191 0.380724 35.079 0.518137 35.079H6.63188V37.5793H6.04466C5.90871 37.5817 5.77907 37.6426 5.68371 37.7489C5.58835 37.8552 5.53491 37.9984 5.53491 38.1475C5.53491 38.2966 5.58835 38.4398 5.68371 38.5461C5.77907 38.6524 5.90871 38.7133 6.04466 38.7158H11.5713C11.7072 38.7133 11.8368 38.6524 11.9322 38.5461C12.0276 38.4398 12.081 38.2966 12.081 38.1475C12.081 37.9984 12.0276 37.8552 11.9322 37.7489C11.8368 37.6426 11.7072 37.5817 11.5713 37.5793H10.984V35.079H13.2638V38.1474C13.2638 38.2982 13.3184 38.4427 13.4155 38.5492C13.5127 38.6558 13.6445 38.7157 13.7819 38.7157H32.2684C33.1562 38.7157 33.963 38.2627 34.4821 37.4729C35.0011 36.683 35.1378 35.7003 34.857 34.7766ZM9.94782 37.5793H7.66809V35.079H9.94782V37.5793ZM29.8434 12.0844V14.5089C29.8434 14.5139 29.8425 14.5188 29.8408 14.5234C29.8391 14.528 29.8365 14.5322 29.8333 14.5357C29.8301 14.5393 29.8263 14.5421 29.8221 14.544C29.8179 14.5459 29.8134 14.5468 29.8089 14.5468H28.669V12.0466H29.8089C29.828 12.0466 29.8434 12.0636 29.8434 12.0844ZM14.3691 14.5468H13.2292C13.2247 14.5468 13.2202 14.5459 13.216 14.544C13.2118 14.5421 13.208 14.5393 13.2048 14.5357C13.2016 14.5322 13.199 14.528 13.1973 14.5234C13.1956 14.5188 13.1947 14.5139 13.1947 14.5089V12.0844C13.1947 12.0795 13.1956 12.0745 13.1973 12.0699C13.199 12.0653 13.2016 12.0612 13.2048 12.0576C13.208 12.0541 13.2118 12.0513 13.216 12.0494C13.2202 12.0475 13.2247 12.0465 13.2292 12.0466H14.3691V14.5468ZM14.3915 10.9101H13.7473V4.06462L15.9557 3.58022C16.1542 3.53674 16.3571 3.33689 16.4226 3.12705C16.4944 2.8974 16.4215 2.636 16.2449 2.4896L14.6126 1.13644H21.9213C21.9545 1.14623 21.9885 1.15236 22.0229 1.15474C26.0983 1.4405 29.2908 5.17649 29.2908 9.65995V10.91H28.6466C28.383 7.51962 25.7829 4.84884 22.6244 4.84884H20.4137C17.2552 4.84892 14.6551 7.51969 14.3915 10.9101ZM27.629 11.3146L24.6487 8.04599C24.567 7.95635 24.4604 7.89924 24.3457 7.88376C24.231 7.86828 24.1149 7.8953 24.0158 7.96054L21.5191 9.60346L19.0224 7.96054C18.9233 7.89533 18.8072 7.86832 18.6925 7.8838C18.5778 7.89928 18.4711 7.95637 18.3894 8.04599L15.4091 11.3146C15.4885 8.36138 17.7022 5.98536 20.4138 5.98536H22.6244C25.336 5.98543 27.5495 8.36138 27.629 11.3146ZM15.4053 16.9712V16.1522C15.5636 16.4372 15.7384 16.7108 15.9286 16.9712H15.4053ZM18.8557 18.1078H19.3084C19.4444 18.1053 19.574 18.0444 19.6694 17.9381C19.7647 17.8318 19.8182 17.6886 19.8182 17.5395C19.8182 17.3904 19.7647 17.2472 19.6694 17.1409C19.574 17.0346 19.4444 16.9737 19.3084 16.9712H17.3534C16.325 15.9183 15.6222 14.4842 15.449 12.8749C15.4588 12.8656 15.4688 12.8563 15.4781 12.8461L18.8361 9.16322L21.2525 10.7533C21.333 10.8063 21.4251 10.8343 21.519 10.8343C21.613 10.8343 21.7051 10.8063 21.7856 10.7533L24.202 9.16322L27.5773 12.865C27.5811 12.8692 27.5852 12.8727 27.589 12.8766C27.2277 16.2566 24.6401 18.7896 21.519 18.7896C20.5708 18.7896 19.6658 18.5436 18.8557 18.1078ZM20.9052 23.5628H22.1328L22.6442 34.2175L21.5191 35.0401L20.394 34.2175L20.9052 23.5628ZM20.493 20.5322H22.5449L22.1995 22.4263H20.8384L20.493 20.5322ZM29.2908 37.5414C29.2908 37.5464 29.2899 37.5513 29.2882 37.5559C29.2864 37.5605 29.2839 37.5647 29.2807 37.5682C29.2775 37.5717 29.2737 37.5745 29.2695 37.5764C29.2653 37.5783 29.2608 37.5793 29.2562 37.5793H28.669V36.9352C28.6668 36.7861 28.6112 36.644 28.5143 36.5394C28.4174 36.4348 28.2869 36.3762 28.1509 36.3762C28.0149 36.3762 27.8844 36.4348 27.7875 36.5394C27.6905 36.644 27.635 36.7861 27.6328 36.9352V37.5793H27.011V36.9352C27.0088 36.7861 26.9532 36.644 26.8563 36.5394C26.7593 36.4348 26.6288 36.3762 26.4929 36.3762C26.3569 36.3762 26.2264 36.4348 26.1294 36.5394C26.0325 36.644 25.9769 36.7861 25.9747 36.9352V37.5793H25.3875C25.383 37.5793 25.3785 37.5783 25.3743 37.5764C25.3701 37.5745 25.3663 37.5717 25.363 37.5682C25.3598 37.5647 25.3573 37.5605 25.3556 37.5559C25.3538 37.5513 25.3529 37.5464 25.3529 37.5414V35.1169C25.3529 34.7618 25.6163 34.4729 25.9402 34.4729H28.7017L28.7034 34.473L28.7049 34.4729C29.028 34.4738 29.2907 34.7622 29.2907 35.1169V37.5414H29.2908ZM33.6414 36.8084C33.3194 37.2983 32.819 37.5793 32.2683 37.5793H30.3252C30.3256 37.5666 30.3269 37.5542 30.3269 37.5414V35.1169C30.3269 34.2784 29.7956 33.5739 29.0828 33.3859L26.9798 27.0431C26.8819 26.7482 26.5846 26.5959 26.3158 26.7033C26.2519 26.7288 26.1931 26.7679 26.1429 26.8183C26.0928 26.8687 26.0521 26.9294 26.0233 26.997C25.9946 27.0647 25.9782 27.1378 25.9752 27.2124C25.9723 27.2869 25.9827 27.3614 26.0059 27.4315L27.9638 33.3363H25.9402C25.0451 33.3363 24.3168 34.1351 24.3168 35.1168V37.5413C24.3168 37.5541 24.3182 37.5666 24.3185 37.5792H14.3V35.0789H17.0978C17.2352 35.0789 17.367 35.019 17.4641 34.9125C17.5613 34.8059 17.6159 34.6614 17.6159 34.5107V20.5322H19.4363L19.8929 23.036L19.3436 34.4809C19.3389 34.5794 19.3576 34.6775 19.3979 34.7657C19.4382 34.8538 19.4988 34.9289 19.5736 34.9836L21.2316 36.1958C21.4037 36.3216 21.6341 36.3217 21.8063 36.1958L23.4643 34.9836C23.5391 34.9289 23.5996 34.8538 23.64 34.7657C23.6803 34.6775 23.699 34.5794 23.6943 34.4809L23.145 23.036L23.6016 20.5322H28.2154C28.5707 20.5318 28.9171 20.6542 29.2054 20.8821C29.4936 21.1099 29.7091 21.4316 29.8211 21.8014L33.874 35.1359C34.0481 35.7089 33.9633 36.3184 33.6414 36.8084Z" fill="#D9D7BA"/>
<path d="M8.80805 30.2677C9.09421 30.2677 9.32619 30.0133 9.32619 29.6995C9.32619 29.3857 9.09421 29.1313 8.80805 29.1313C8.52189 29.1313 8.28992 29.3857 8.28992 29.6995C8.28992 30.0133 8.52189 30.2677 8.80805 30.2677Z" fill="#D9D7BA"/>
<path d="M9.95584 27.8348C9.64923 27.4984 9.24155 27.3132 8.80787 27.3132C8.59459 27.3126 8.38331 27.3584 8.18626 27.4479C7.98921 27.5375 7.81031 27.669 7.6599 27.8349C7.61179 27.8876 7.57363 27.9503 7.5476 28.0193C7.52157 28.0882 7.50817 28.1621 7.50818 28.2368C7.50819 28.3114 7.52159 28.3853 7.54764 28.4542C7.57368 28.5232 7.61185 28.5858 7.65997 28.6386C7.70808 28.6914 7.7652 28.7333 7.82806 28.7618C7.89092 28.7904 7.9583 28.8051 8.02634 28.8051C8.09438 28.8051 8.16175 28.7904 8.22461 28.7618C8.28747 28.7332 8.34457 28.6913 8.39267 28.6385C8.44707 28.5785 8.51178 28.531 8.58305 28.4986C8.65432 28.4662 8.73073 28.4497 8.80787 28.4499C8.88502 28.4497 8.96144 28.4662 9.03271 28.4986C9.10398 28.531 9.16868 28.5786 9.22307 28.6386C9.42274 28.8575 9.75624 28.8575 9.95584 28.6385C10.004 28.5858 10.0421 28.5231 10.0682 28.4542C10.0942 28.3852 10.1076 28.3113 10.1076 28.2367C10.1076 28.162 10.0942 28.0881 10.0682 28.0192C10.0421 27.9502 10.004 27.8876 9.95584 27.8348Z" fill="#D9D7BA"/>
<path d="M11.1282 26.5492C10.5085 25.8693 9.68443 25.4949 8.8079 25.4949C7.93138 25.4949 7.10732 25.8693 6.48756 26.5492C6.39281 26.6563 6.34029 26.8 6.34132 26.9493C6.34236 27.0986 6.39687 27.2414 6.49309 27.3469C6.58931 27.4525 6.71951 27.5123 6.85557 27.5134C6.99164 27.5145 7.12266 27.4569 7.22033 27.353C7.64435 26.8878 8.20813 26.6316 8.80783 26.6316C9.40754 26.6316 9.97139 26.8878 10.3953 27.353C10.4434 27.4058 10.5006 27.4477 10.5635 27.4762C10.6263 27.5048 10.6937 27.5195 10.7618 27.5194C11.2149 27.5194 11.4474 26.8994 11.1282 26.5492Z" fill="#D9D7BA"/>
</svg>
