<svg width="35" height="40" viewBox="0 0 35 40" fill="none" xmlns="http://www.w3.org/2000/svg">
<path d="M18.6546 38.6669L18.6313 38.6706L18.4933 38.7357L18.4544 38.7431L18.4272 38.7357L18.2891 38.6688C18.2684 38.6638 18.2528 38.6675 18.2425 38.6799L18.2347 38.6985L18.2016 39.4945L18.2114 39.5317L18.2308 39.5559L18.433 39.6935L18.4621 39.7009L18.4855 39.6935L18.6877 39.5559L18.711 39.5261L18.7188 39.4945L18.6857 38.7004C18.6805 38.6805 18.6702 38.6694 18.6546 38.6669ZM19.1678 38.4567L19.1406 38.4605L18.7829 38.6334L18.7635 38.652L18.7576 38.6725L18.7926 39.4722L18.8024 39.4945L18.8179 39.5094L19.2087 39.6805C19.2333 39.6867 19.2521 39.6817 19.265 39.6656L19.2728 39.6395L19.2067 38.4977C19.2002 38.4741 19.1873 38.4605 19.1678 38.4567ZM17.7778 38.4605C17.7693 38.4555 17.759 38.4539 17.7492 38.456C17.7395 38.458 17.7309 38.4637 17.7253 38.4716L17.7137 38.4977L17.6476 39.6395C17.6489 39.6619 17.6599 39.6767 17.6806 39.6842L17.7098 39.6805L18.1006 39.5075L18.12 39.4926L18.1258 39.4722L18.1608 38.6725L18.155 38.6502L18.1355 38.6316L17.7778 38.4605Z" fill="#D9D7BA"/>
<path d="M5.18802 20.0103C5.65508 19.8541 6.16682 19.8742 6.61895 20.0665C7.07108 20.2587 7.4296 20.6087 7.62144 21.045C7.81328 21.4814 7.82402 21.9713 7.65147 22.415C7.47891 22.8587 7.13604 23.2227 6.69273 23.4329L6.48277 23.5185C5.87512 23.724 5.33037 24.0708 4.89748 24.5277C4.4646 24.9846 4.15713 25.5372 4.00272 26.1359C3.84832 26.7346 3.85181 27.3607 4.01288 27.9578C4.17395 28.5549 4.48755 29.1044 4.92551 29.5568C5.36346 30.0092 5.91204 30.3504 6.52195 30.5498C7.13186 30.7492 7.78398 30.8004 8.4197 30.6989C9.05543 30.5974 9.65484 30.3464 10.1641 29.9684C10.6733 29.5904 11.0764 29.0972 11.3371 28.5333L11.4479 28.2673C11.5275 28.0305 11.656 27.8114 11.8256 27.623C11.9952 27.4345 12.2027 27.2806 12.4356 27.1702C12.6685 27.0598 12.9222 26.9952 13.1817 26.9802C13.4412 26.9653 13.7011 27.0002 13.9462 27.0831C14.1913 27.1659 14.4165 27.295 14.6086 27.4626C14.8007 27.6302 14.9556 27.8329 15.0644 28.0588C15.1731 28.2847 15.2334 28.5292 15.2417 28.7778C15.2499 29.0264 15.206 29.274 15.1125 29.5061C14.6749 30.6917 13.9304 31.7519 12.9486 32.5878C11.9668 33.4236 10.7797 34.0078 9.49807 34.2858C8.21644 34.5638 6.88207 34.5266 5.61953 34.1777C4.35699 33.8287 3.20744 33.1793 2.27819 32.2902C1.34893 31.4011 0.670272 30.3012 0.305552 29.0932C-0.0591679 27.8852 -0.0980543 26.6085 0.192522 25.3822C0.483099 24.156 1.09366 23.0201 1.96723 22.0807C2.84079 21.1414 3.94886 20.4291 5.18802 20.0103ZM29.8116 20.0103C31.0508 20.4291 32.1588 21.1414 33.0324 22.0807C33.9059 23.0201 34.5165 24.156 34.8071 25.3822C35.0977 26.6085 35.0588 27.8852 34.6941 29.0932C34.3293 30.3012 33.6507 31.4011 32.7214 32.2902C31.7922 33.1793 30.6426 33.8287 29.3801 34.1777C28.1175 34.5266 26.7832 34.5638 25.5015 34.2858C24.2199 34.0078 23.0328 33.4236 22.051 32.5878C21.0692 31.7519 20.3248 30.6917 19.8871 29.5061C19.7239 29.0592 19.7449 28.5696 19.9458 28.137C20.1467 27.7044 20.5125 27.3614 20.9685 27.1778C21.4246 26.9942 21.9366 26.984 22.4003 27.1491C22.864 27.3142 23.2445 27.6422 23.4642 28.0664L23.5536 28.2673C23.7685 28.8487 24.1309 29.3699 24.6084 29.7841C25.086 30.1983 25.6635 30.4925 26.2893 30.6402C26.915 30.7879 27.5693 30.7846 28.1934 30.6305C28.8175 30.4764 29.3917 30.1763 29.8646 29.7573C30.3374 29.3382 30.6941 28.8134 30.9024 28.2298C31.1108 27.6462 31.1643 27.0223 31.0583 26.414C30.9522 25.8058 30.6898 25.2322 30.2948 24.745C29.8997 24.2578 29.3843 23.8721 28.7948 23.6226L28.5168 23.5185C28.2761 23.4371 28.0545 23.3112 27.8646 23.1479C27.6747 22.9846 27.5203 22.7871 27.4102 22.5667C27.1878 22.1216 27.1593 21.6102 27.331 21.145C27.5027 20.6798 27.8605 20.2989 28.3257 20.0861C28.7909 19.8733 29.3254 19.8461 29.8116 20.0103ZM9.74492 7.75608L9.94516 7.88628L15.1125 11.7329C15.7502 12.2077 16.5267 12.4805 17.334 12.5135C18.1412 12.5465 18.9392 12.338 19.6169 11.9171L19.8871 11.7329L25.0545 7.88814C25.4119 7.62176 25.8554 7.48322 26.3083 7.49646C26.7612 7.5097 27.1951 7.67388 27.5349 7.96064C27.8747 8.2474 28.0992 8.63873 28.1695 9.06701C28.2398 9.49528 28.1516 9.93361 27.92 10.3063L27.7839 10.4978L23.7636 15.442C23.2675 16.0522 22.9823 16.7951 22.9478 17.5675C22.9133 18.3398 23.1312 19.1033 23.5711 19.7518L23.7636 20.0103L27.782 24.9545C28.0604 25.2965 28.2052 25.7208 28.1914 26.1542C28.1775 26.5875 28.0059 27.0026 27.7062 27.3277C27.4065 27.6529 26.9975 27.8676 26.5499 27.9349C26.1023 28.0022 25.6442 27.9178 25.2547 27.6962L25.0545 27.566L19.8871 23.7194C19.2494 23.2447 18.4729 22.9718 17.6657 22.9388C16.8584 22.9058 16.0605 23.1143 15.3827 23.5352L15.1125 23.7194L9.94516 27.5642C9.58768 27.8305 9.14417 27.9691 8.69128 27.9558C8.23839 27.9426 7.80455 27.7784 7.46473 27.4917C7.12491 27.2049 6.90045 26.8136 6.83013 26.3853C6.75981 25.957 6.84805 25.5187 7.0796 25.146L7.21569 24.9545L11.236 20.0103C11.7322 19.4002 12.0173 18.6572 12.0518 17.8848C12.0863 17.1125 11.8684 16.349 11.4285 15.7005L11.236 15.442L7.21763 10.4978C6.95131 10.1711 6.80661 9.76871 6.80649 9.35438C6.80637 8.94005 6.95084 8.53754 7.21698 8.21069C7.48312 7.88384 7.85569 7.65137 8.2756 7.55015C8.69552 7.44892 9.13873 7.48474 9.53496 7.65191L9.74492 7.75608ZM27.2202 0.985352C29.0552 0.984549 30.8315 1.60471 32.2347 2.73616C33.638 3.8676 34.5779 5.43742 34.8881 7.16795C35.1983 8.89849 34.8589 10.6782 33.9298 12.1924C33.0008 13.7066 31.5421 14.8576 29.8116 15.442C29.3445 15.5982 28.8328 15.5781 28.3807 15.3858C27.9285 15.1936 27.57 14.8436 27.3782 14.4073C27.1863 13.9709 27.1756 13.481 27.3482 13.0373C27.5207 12.5936 27.8636 12.2296 28.3069 12.0194L28.5168 11.9338C29.1245 11.7283 29.6692 11.3815 30.1021 10.9246C30.535 10.4677 30.8425 9.91509 30.9969 9.31638C31.1513 8.71766 31.1478 8.09162 30.9867 7.49451C30.8257 6.89741 30.5121 6.34795 30.0741 5.89552C29.6362 5.44309 29.0876 5.10186 28.4777 4.9025C27.8678 4.70315 27.2156 4.65191 26.5799 4.75339C25.9442 4.85488 25.3448 5.10591 24.8355 5.48391C24.3263 5.86192 23.9232 6.35507 23.6625 6.91904L23.5536 7.18503C23.3819 7.65024 23.0241 8.03113 22.5589 8.24392C22.0937 8.45671 21.5592 8.48396 21.073 8.31968C20.5868 8.15541 20.1887 7.81305 19.9663 7.36794C19.7439 6.92283 19.7154 6.41142 19.8871 5.94621C20.4231 4.49524 21.4162 3.23899 22.7295 2.35053C24.0428 1.46206 25.6117 0.985104 27.2202 0.985352ZM7.77947 0.985352C9.38789 0.985104 10.9568 1.46206 12.2701 2.35053C13.5834 3.23899 14.5765 4.49524 15.1125 5.94621C15.2757 6.3931 15.2548 6.88272 15.0538 7.31532C14.8529 7.74793 14.4872 8.09095 14.0311 8.27451C13.575 8.45807 13.063 8.46834 12.5993 8.30324C12.1356 8.13814 11.7551 7.81008 11.5354 7.38592L11.446 7.18503C11.2311 6.60363 10.8687 6.08241 10.3912 5.66822C9.91367 5.25403 9.33609 4.95985 8.71035 4.81211C8.0846 4.66438 7.43029 4.66772 6.80623 4.82183C6.18217 4.97594 5.6079 5.276 5.13504 5.69503C4.66218 6.11407 4.30555 6.63895 4.09719 7.22251C3.88884 7.80607 3.83529 8.43003 3.94135 9.03829C4.04742 9.64656 4.30978 10.2201 4.70485 10.7073C5.09993 11.1945 5.61534 11.5802 6.20477 11.8297L6.48277 11.9357C6.95494 12.1099 7.33751 12.4534 7.5492 12.8932C7.76089 13.3329 7.785 13.8344 7.61642 14.2909C7.44784 14.7474 7.09985 15.1231 6.64639 15.338C6.19293 15.553 5.66976 15.5902 5.18802 15.442C3.45983 14.8557 2.00366 13.7042 1.07655 12.1906C0.149436 10.677 -0.189013 8.89863 0.120947 7.1695C0.430906 5.44036 1.36934 3.87158 2.77061 2.74008C4.17188 1.60858 5.94587 0.987102 7.77947 0.985352Z" fill="#D9D7BA"/>
</svg>
