<svg width="37" height="42" viewBox="0 0 37 42" fill="none" xmlns="http://www.w3.org/2000/svg">
<path d="M14.8272 28.8643L20.0123 31.0151C20.0123 31.0151 32.9753 27.7888 34.7037 27.7888C36.4321 27.7888 36.4321 29.9397 34.7037 32.0906C32.9753 34.2414 26.9259 40.6941 21.7407 40.6941C16.5556 40.6941 13.0988 37.4678 9.64198 37.4678H1" stroke="#D9D7BA" stroke-width="2" stroke-linecap="round" stroke-linejoin="round"/>
<path d="M1 24.5625C2.7284 22.4116 6.18519 19.1853 9.64198 19.1853C13.0988 19.1853 21.3086 23.487 22.6049 25.6379C23.9012 27.7888 20.0123 31.0151 20.0123 31.0151M11.3704 12.7327V4.12915C11.3704 3.5587 11.5525 3.01162 11.8766 2.60825C12.2007 2.20488 12.6404 1.97827 13.0988 1.97827H33.8395C34.2979 1.97827 34.7375 2.20488 35.0617 2.60825C35.3858 3.01162 35.5679 3.5587 35.5679 4.12915V21.3362" stroke="#D9D7BA" stroke-width="2" stroke-linecap="round" stroke-linejoin="round"/>
<path d="M19.1481 1.97827H27.7901V11.6572H19.1481V1.97827Z" stroke="#D9D7BA" stroke-width="2" stroke-linecap="round" stroke-linejoin="round"/>
</svg>
