<svg width="35" height="39" viewBox="0 0 35 39" fill="none" xmlns="http://www.w3.org/2000/svg">
<path d="M2.64738 1.09606L3.63417 4.78946H29.926C33.2272 4.78946 35.748 8.19524 34.7971 11.7518L31.8278 22.8598C31.1962 25.2281 29.1885 26.8071 26.9566 26.8071H10.5292C8.29722 26.8071 6.29134 25.2281 5.658 22.8598L0.0655678 1.93907C0.0101684 1.75012 -0.0104439 1.55082 0.00494599 1.35292C0.0203359 1.15502 0.0714165 0.962529 0.155175 0.786804C0.238934 0.611079 0.353675 0.455677 0.49263 0.329765C0.631585 0.203852 0.79194 0.109979 0.964237 0.0536812C1.13653 -0.00261654 1.31728 -0.0201988 1.49583 0.00197225C1.67437 0.0241433 1.84709 0.0856182 2.00379 0.182771C2.1605 0.279924 2.29802 0.410788 2.40825 0.567643C2.51848 0.724499 2.60097 0.90417 2.64738 1.09606ZM23.0489 13.297C23.2517 12.9768 23.3325 12.5813 23.2736 12.1959C23.2148 11.8105 23.0211 11.4661 22.7345 11.2373C22.4479 11.0085 22.0913 10.9136 21.7419 10.9731C21.3924 11.0326 21.0782 11.2418 20.8672 11.5554L17.7938 16.2584L16.7191 14.9017C16.6042 14.749 16.4629 14.6233 16.3034 14.532C16.1439 14.4406 15.9695 14.3855 15.7905 14.3699C15.6114 14.3542 15.4314 14.3784 15.2609 14.4409C15.0904 14.5034 14.933 14.603 14.7979 14.7338C14.6628 14.8647 14.5527 15.0241 14.4742 15.2027C14.3957 15.3813 14.3503 15.5754 14.3408 15.7737C14.3312 15.972 14.3576 16.1704 14.4185 16.3572C14.4794 16.544 14.5735 16.7155 14.6952 16.8614L16.5504 19.204C16.7234 19.4226 16.9386 19.5953 17.1803 19.7092C17.4219 19.8231 17.6836 19.8754 17.946 19.862C18.2084 19.8487 18.4647 19.7701 18.6959 19.6321C18.927 19.4942 19.1271 19.3004 19.2811 19.0652L23.0489 13.297ZM11.2235 29.7824C10.1529 29.7824 9.12607 30.2526 8.36901 31.0896C7.61195 31.9266 7.18663 33.0618 7.18663 34.2454C7.18663 35.4291 7.61195 36.5643 8.36901 37.4013C9.12607 38.2382 10.1529 38.7085 11.2235 38.7085C12.2942 38.7085 13.321 38.2382 14.078 37.4013C14.8351 36.5643 15.2604 35.4291 15.2604 34.2454C15.2604 33.0618 14.8351 31.9266 14.078 31.0896C13.321 30.2526 12.2942 29.7824 11.2235 29.7824ZM25.5769 29.7824C24.5062 29.7824 23.4794 30.2526 22.7224 31.0896C21.9653 31.9266 21.54 33.0618 21.54 34.2454C21.54 35.4291 21.9653 36.5643 22.7224 37.4013C23.4794 38.2382 24.5062 38.7085 25.5769 38.7085C26.6475 38.7085 27.6743 38.2382 28.4314 37.4013C29.1885 36.5643 29.6138 35.4291 29.6138 34.2454C29.6138 33.0618 29.1885 31.9266 28.4314 31.0896C27.6743 30.2526 26.6475 29.7824 25.5769 29.7824Z" fill="#D9D7BA"/>
</svg>
