<svg width="43" height="39" viewBox="0 0 43 39" fill="none" xmlns="http://www.w3.org/2000/svg">
<path d="M8.81787 27.2622L13.7257 13.723C14.6201 11.8428 15.9851 10.2892 17.5504 14.0167C18.9951 17.4583 21.1476 23.7583 22.4212 27.268M11.0462 21.4483H20.1248" stroke="#D9D7BA" stroke-width="2.5" stroke-linecap="round" stroke-linejoin="round"/>
<path d="M4.84667 4.56278C2 7.12556 2 11.2517 2 19.5C2 27.7483 2 31.8744 4.84667 34.4372C7.69722 37 12.2783 37 21.4444 37C30.6106 37 35.1936 37 38.0403 34.4372C40.8869 31.8744 40.8889 27.7483 40.8889 19.5C40.8889 11.2517 40.8889 7.12556 38.0403 4.56278C35.1956 2 30.6106 2 21.4444 2C12.2783 2 7.69528 2 4.84667 4.56278Z" stroke="#D9D7BA" stroke-width="2.5" stroke-linecap="round" stroke-linejoin="round"/>
<path d="M34.0518 13.642V19.4656M34.0518 19.4656V27.1325M34.0518 19.4656H30.1279C29.6612 19.4656 29.1985 19.5511 28.7629 19.7203C25.471 20.9978 25.471 25.7481 28.7629 27.0256C29.2004 27.1947 29.6612 27.2803 30.1279 27.2803H34.0518" stroke="#D9D7BA" stroke-width="2.5" stroke-linecap="round" stroke-linejoin="round"/>
</svg>
