<svg width="40" height="35" viewBox="0 0 40 35" fill="none" xmlns="http://www.w3.org/2000/svg">
<path d="M25.0001 35H15.0002V25.0002H25.0001V35ZM17.5002 32.5H22.5001V27.5002H17.5002V32.5Z" fill="#D9D7BA"/>
<path d="M39.9993 11.2493H27.4995V13.7493H32.4994V17.4992H7.49987V13.7493H12.4998V11.2493H0V13.7493H4.99991V19.9991H11.4148L7.49987 25.8702V31.2488H9.99983V26.6277L14.4185 19.9991H25.5808L29.9995 26.6277V31.2488H32.4994V25.8702L28.5845 19.9991H34.9994V13.7493H39.9993V11.2493ZM19.9997 4.99951C19.0149 4.99902 18.0397 5.19311 17.1302 5.57065C16.2206 5.94819 15.3947 6.50172 14.6997 7.19945L16.466 8.96565C16.9297 8.50101 17.4805 8.13239 18.0868 7.88088C18.6932 7.62936 19.3432 7.4999 19.9997 7.4999C20.6561 7.4999 21.3061 7.62936 21.9125 7.88088C22.5188 8.13239 23.0696 8.50101 23.5333 8.96565L25.3008 7.1982C24.6056 6.50055 23.7794 5.94716 22.8696 5.56983C21.9599 5.19251 20.9845 4.99869 19.9997 4.99951Z" fill="#D9D7BA"/>
<path d="M11.1643 3.66552L12.9318 5.43297C13.8594 4.50399 14.961 3.76701 16.1737 3.26417C17.3864 2.76133 18.6863 2.50251 19.9992 2.50251C21.312 2.50251 22.6119 2.76133 23.8246 3.26417C25.0373 3.76701 26.1389 4.50399 27.0665 5.43297L28.834 3.66552C27.6748 2.50359 26.2977 1.58174 24.7817 0.952749C23.2657 0.323763 21.6405 0 19.9992 0C18.3578 0 16.7326 0.323763 15.2166 0.952749C13.7006 1.58174 12.3235 2.50359 11.1643 3.66552Z" fill="#D9D7BA"/>
</svg>
